Coordinates
version=1
nRows=20
nColumns=38
inDegrees=no

Units are S.I. units (second, meters, Newtons, ...)
If the header above contains a line with 'inDegrees', this indicates whether rotational values are in degrees (yes) or radians (no).

endheader
time	pelvis_tilt	pelvis_list	pelvis_rotation	pelvis_tx	pelvis_ty	pelvis_tz	hip_flexion_r	hip_adduction_r	hip_rotation_r	knee_angle_r	ankle_angle_r	subtalar_angle_r	mtp_angle_r	hip_flexion_l	hip_adduction_l	hip_rotation_l	knee_angle_l	ankle_angle_l	subtalar_angle_l	mtp_angle_l	lumbar_extension	lumbar_bending	lumbar_rotation	arm_flex_r	arm_add_r	arm_rot_r	elbow_flex_r	pro_sup_r	wrist_flex_r	wrist_dev_r	arm_flex_l	arm_add_l	arm_rot_l	elbow_flex_l	pro_sup_l	wrist_flex_l	wrist_dev_l
1.82	-3.10824	1.44645	-1.42375	0.620184	1.44346	0.93157	0.341419	-0.110036	-0.293602	0.225874	0.124654	0	0	-0.330655	0.0747867	-0.0705491	0.0337925	0.194518	0	0	-0.289264	-0.0616663	-0.192938	-0.0528231	-0.226633	0.181436	0.486695	0.99447	0	0	0.0213197	-0.391096	0.326206	0.737474	1.33348	0	0
1.83	-3.09942	1.45058	-1.43741	0.620851	1.45248	0.929643	0.332172	-0.0992693	-0.278722	0.158804	0.114727	0	0	-0.337018	0.0756326	-0.0753128	0.0352608	0.204505	0	0	-0.287813	-0.0637443	-0.185792	-0.0513125	-0.22557	0.182466	0.48373	0.996478	0	0	0.0267105	-0.388572	0.324036	0.739932	1.33642	0	0
1.84	-3.08648	1.45374	-1.45527	0.621516	1.46179	0.927706	0.321338	-0.0896226	-0.262721	0.0974559	0.10025	0	0	-0.34445	0.0767327	-0.0801532	0.0374397	0.214604	0	0	-0.286878	-0.0660281	-0.17849	-0.050251	-0.224673	0.181584	0.480769	1.00202	0	0	0.031093	-0.38611	0.322106	0.743127	1.33742	0	0
1.85	-3.09737	1.45419	-1.45035	0.622344	1.47103	0.926169	0.328126	-0.0800771	-0.29918	0.0971761	0.120616	0	0	-0.353497	0.0746021	-0.0870426	0.0412961	0.22404	0	0	-0.288995	-0.0649528	-0.16957	-0.0485788	-0.224617	0.181451	0.479138	1.00368	0	0	0.0364206	-0.38301	0.321006	0.745162	1.33719	0	0
1.86	-3.05015	1.45805	-1.50108	0.622582	1.48117	0.923732	0.310903	-0.0784661	-0.255732	0.0285986	0.0802749	0	0	-0.359669	0.0794704	-0.0909695	0.0476794	0.235222	0	0	-0.285547	-0.0704129	-0.164264	-0.0513724	-0.2249	0.179225	0.480691	1.00725	0	0	0.0378395	-0.380461	0.319394	0.748884	1.3374	0	0
1.87	-3.07312	1.45605	-1.48304	0.6232	1.49081	0.922401	0.321276	-0.0695249	-0.301284	0.0578856	0.105122	0	0	-0.369315	0.0752335	-0.0989536	0.056235	0.245829	0	0	-0.289629	-0.0667521	-0.156667	-0.0505326	-0.226192	0.178733	0.481936	1.00729	0	0	0.0416799	-0.376621	0.317947	0.750064	1.33724	0	0
1.88	-3.05832	1.4562	-1.49971	0.623131	1.50087	0.920577	0.329141	-0.07199	-0.329534	0.079317	0.115319	0	0	-0.375746	0.0750275	-0.10416	0.0685489	0.257706	0	0	-0.290629	-0.0664641	-0.153737	-0.0512794	-0.22772	0.17721	0.484613	1.00802	0	0	0.0422596	-0.372918	0.315098	0.752788	1.33748	0	0
1.89	-3.04721	1.45522	-1.51076	0.622838	1.51115	0.918929	0.330146	-0.0734475	-0.346537	0.0976599	0.119049	0	0	-0.381986	0.073361	-0.108496	0.0839143	0.269666	0	0	-0.292493	-0.0649033	-0.153361	-0.0517195	-0.229018	0.175016	0.48714	1.00964	0	0	0.0413528	-0.369347	0.311735	0.755692	1.33795	0	0
1.9	-3.03642	1.4534	-1.52035	0.622371	1.52172	0.917372	0.331959	-0.0770566	-0.363251	0.128021	0.124585	0	0	-0.388463	0.0711397	-0.111641	0.101053	0.281366	0	0	-0.294655	-0.0627183	-0.154945	-0.0518896	-0.230711	0.174073	0.489492	1.01185	0	0	0.0387355	-0.365916	0.307941	0.758787	1.33857	0	0
1.91	-3.01922	1.4516	-1.5351	0.621682	1.53264	0.915774	0.337986	-0.0855628	-0.385565	0.17564	0.135334	0	0	-0.394717	0.0693061	-0.11332	0.119281	0.292368	0	0	-0.296046	-0.0607437	-0.158563	-0.0524158	-0.232605	0.173879	0.491955	1.01462	0	0	0.034303	-0.362741	0.304211	0.762047	1.33919	0	0
1.92	-3.00579	1.45003	-1.54482	0.620928	1.54379	0.914238	0.33857	-0.092057	-0.396649	0.21532	0.140517	0	0	-0.400057	0.0663008	-0.113987	0.139058	0.302001	0	0	-0.296834	-0.0579651	-0.16388	-0.0528627	-0.234151	0.173689	0.494042	1.01762	0	0	0.0285216	-0.360016	0.300854	0.765298	1.33982	0	0
1.93	-2.96239	1.4505	-1.58243	0.62007	1.55564	0.912227	0.337743	-0.0978593	-0.39923	0.245032	0.146767	0	0	-0.403736	0.0660472	-0.111585	0.159243	0.309587	0	0	-0.293662	-0.0589725	-0.172424	-0.0553441	-0.2349	0.17388	0.496475	1.0198	0	0	0.0194707	-0.359305	0.298942	0.770007	1.34016	0	0
1.94	-2.98825	1.44661	-1.5518	0.619222	1.56684	0.911505	0.336529	-0.105279	-0.42631	0.2881	0.164234	0	0	-0.40952	0.0571485	-0.11378	0.182331	0.3154	0	0	-0.297459	-0.0500301	-0.178616	-0.0539162	-0.237175	0.175045	0.497732	1.02201	0	0	0.0142404	-0.355686	0.29745	0.769727	1.34003	0	0
1.95	-3.00813	1.44563	-1.52848	0.618613	1.57802	0.910676	0.336657	-0.104339	-0.409815	0.327726	0.228908	0	0	-0.409825	0.0488277	-0.117564	0.209523	0.320336	0	0	-0.298184	-0.0420888	-0.183871	-0.0522009	-0.238731	0.176278	0.497888	1.02493	0	0	0.00916032	-0.351786	0.295775	0.767357	1.34025	0	0
1.96	-3.01347	1.44685	-1.51904	0.618741	1.5903	0.909491	0.320993	-0.0889314	-0.401495	0.283287	0.136145	0	0	-0.407747	0.0400573	-0.122992	0.238892	0.324005	0	0	-0.293917	-0.0381692	-0.190009	-0.0536787	-0.237046	0.175903	0.496781	1.02795	0	0	0.000247969	-0.351421	0.295768	0.766742	1.34098	0	0
1.97	-3.04447	1.44581	-1.48669	0.618785	1.60227	0.909067	0.314786	-0.0811606	-0.401115	0.285243	0.102175	0	0	-0.405766	0.0290263	-0.130677	0.271311	0.323788	0	0	-0.293047	-0.0302454	-0.193067	-0.0528967	-0.237215	0.176361	0.495359	1.03126	0	0	-0.00636321	-0.348764	0.296329	0.762645	1.34172	0	0
1.98	-3.07732	1.4456	-1.45374	0.619158	1.61454	0.90876	0.303463	-0.0703216	-0.398441	0.277477	0.0654913	0	0	-0.400265	0.0170668	-0.139948	0.308958	0.321261	0	0	-0.290555	-0.0228685	-0.195052	-0.0526571	-0.236813	0.177091	0.493911	1.034	0	0	-0.0137218	-0.346567	0.29713	0.757759	1.34279	0	0
1.99	-3.1134	1.44516	-1.41867	0.619796	1.62683	0.90872	0.287123	-0.0556789	-0.385118	0.261232	0.0327051	0	0	-0.391171	0.00353298	-0.152356	0.353215	0.315081	0	0	-0.2881	-0.0155821	-0.196293	-0.0518978	-0.235954	0.178593	0.492182	1.03649	0	0	-0.0212236	-0.344788	0.298264	0.752265	1.34417	0	0
2	-3.1365	1.44387	-1.39739	0.620373	1.63916	0.908947	0.278995	-0.0480996	-0.379035	0.267417	0.0171749	0	0	-0.379235	-0.00910346	-0.16504	0.403882	0.302137	0	0	-0.286655	-0.00973709	-0.196937	-0.0513857	-0.235282	0.18023	0.491095	1.03896	0	0	-0.0284686	-0.34288	0.300102	0.746147	1.34577	0	0
2.01	3.09462	1.43914	-1.34811	0.621273	1.65119	0.909968	0.256697	-0.028668	-0.34996	0.248638	-0.00355583	0	0	-0.363904	-0.0284499	-0.180801	0.463977	0.282216	0	0	-0.289196	0.000530062	-0.195088	-0.0495363	-0.234114	0.180963	0.489272	1.0404	0	0	-0.0334341	-0.34023	0.302354	0.737958	1.34752	0	0
